<?xml version="1.0" encoding="utf-8"?>
<!-- Generator: Adobe Illustrator 25.0.0, SVG Export Plug-In . SVG Version: 6.00 Build 0)  -->
<svg version="1.1" id="Layer_1" xmlns="http://www.w3.org/2000/svg" xmlns:xlink="http://www.w3.org/1999/xlink" x="0px" y="0px"
	 viewBox="0 0 700.353 159.285" style="enable-background:new 0 0 700.353 159.285;" xml:space="preserve">
<style type="text/css">
	.st0{fill:url(#SVGID_1_);}
	.st1{fill:url(#SVGID_2_);}
	.st2{fill:url(#SVGID_3_);}
	.st3{fill:url(#SVGID_4_);}
	.st4{fill:url(#SVGID_5_);}
	.st5{fill:url(#SVGID_6_);}
	.st6{fill:url(#SVGID_7_);}
	.st7{fill:url(#SVGID_8_);}
	.st8{fill:url(#SVGID_9_);}
	.st9{fill:url(#SVGID_10_);}
	.st10{fill:url(#SVGID_11_);}
	.st11{fill:url(#SVGID_12_);}
	.st12{fill:url(#SVGID_13_);}
	.st13{fill:url(#SVGID_14_);}
	.st14{fill:url(#SVGID_15_);}
	.st15{fill:url(#SVGID_16_);}
	.st16{fill:url(#SVGID_17_);}
	.st17{fill:url(#SVGID_18_);}
	.st18{fill:url(#SVGID_19_);}
	.st19{fill:url(#SVGID_20_);}
	.st20{fill:url(#SVGID_21_);}
	.st21{fill:url(#SVGID_22_);}
	.st22{fill:url(#SVGID_23_);}
	.st23{fill:url(#SVGID_24_);}
	.st24{fill:url(#SVGID_25_);}
	.st25{fill:url(#SVGID_26_);}
	.st26{fill:url(#SVGID_27_);}
	.st27{fill:url(#SVGID_28_);}
	.st28{fill:url(#SVGID_29_);}
	.st29{fill:url(#SVGID_30_);}
	.st30{fill:url(#SVGID_31_);}
	.st31{fill:url(#SVGID_32_);}
	.st32{fill:url(#SVGID_33_);}
	.st33{fill:url(#SVGID_34_);}
	.st34{fill:url(#SVGID_35_);}
	.st35{fill:url(#SVGID_36_);}
	.st36{fill:url(#SVGID_37_);}
	.st37{fill:url(#SVGID_38_);}
	.st38{fill:url(#SVGID_39_);}
	.st39{fill:url(#SVGID_40_);}
	.st40{fill:url(#SVGID_41_);}
	.st41{fill:url(#SVGID_42_);}
	.st42{fill:url(#SVGID_43_);}
	.st43{fill:url(#SVGID_44_);}
	.st44{fill:url(#SVGID_45_);}
	.st45{fill:url(#SVGID_46_);}
	.st46{fill:url(#SVGID_47_);}
	.st47{fill:url(#SVGID_48_);}
	.st48{fill:url(#SVGID_49_);}
	.st49{fill:url(#SVGID_50_);}
	.st50{fill:url(#SVGID_51_);}
	.st51{fill:url(#SVGID_52_);}
	.st52{fill:url(#SVGID_53_);}
	.st53{fill:url(#SVGID_54_);}
	.st54{fill:url(#SVGID_55_);}
	.st55{fill:#FFFFFF;}
	.st56{fill:url(#SVGID_56_);}
	.st57{fill:url(#SVGID_57_);}
	.st58{fill:url(#SVGID_58_);}
	.st59{fill:url(#SVGID_59_);}
	.st60{fill:url(#SVGID_60_);}
	.st61{fill:url(#SVGID_61_);}
	.st62{fill:url(#SVGID_62_);}
	.st63{fill:url(#SVGID_63_);}
	.st64{fill:url(#SVGID_64_);}
	.st65{fill:url(#SVGID_65_);}
	.st66{fill:url(#SVGID_66_);}
	.st67{fill:url(#SVGID_67_);}
	.st68{fill:url(#SVGID_68_);}
	.st69{fill:url(#SVGID_69_);}
	.st70{fill:url(#SVGID_70_);}
	.st71{fill:url(#SVGID_71_);}
	.st72{fill:url(#SVGID_72_);}
	.st73{fill:url(#SVGID_73_);}
	.st74{fill:url(#SVGID_74_);}
	.st75{fill:url(#SVGID_75_);}
	.st76{fill:url(#SVGID_76_);}
	.st77{fill:url(#SVGID_77_);}
	.st78{fill:url(#SVGID_78_);}
	.st79{fill:#010101;}
	.st80{fill:url(#SVGID_79_);}
	.st81{fill:url(#SVGID_80_);}
	.st82{fill:url(#SVGID_81_);}
	.st83{fill:url(#SVGID_82_);}
	.st84{fill:url(#SVGID_83_);}
	.st85{fill:url(#SVGID_84_);}
	.st86{fill:url(#SVGID_85_);}
	.st87{fill:url(#SVGID_86_);}
	.st88{fill:url(#SVGID_87_);}
	.st89{fill:url(#SVGID_88_);}
	.st90{fill:url(#SVGID_89_);}
	.st91{fill:url(#SVGID_90_);}
	.st92{fill:url(#SVGID_91_);}
	.st93{fill:url(#SVGID_92_);}
	.st94{fill:url(#SVGID_93_);}
	.st95{fill:url(#SVGID_94_);}
	.st96{fill:url(#SVGID_95_);}
	.st97{fill:url(#SVGID_96_);}
	.st98{fill:url(#SVGID_97_);}
	.st99{fill:url(#SVGID_98_);}
	.st100{fill:url(#SVGID_99_);}
	.st101{fill:url(#SVGID_100_);}
	.st102{fill:url(#SVGID_101_);}
	.st103{fill:url(#SVGID_102_);}
	.st104{fill:url(#SVGID_103_);}
	.st105{fill:url(#SVGID_104_);}
	.st106{fill:url(#SVGID_105_);}
	.st107{fill:url(#SVGID_106_);}
	.st108{fill:url(#SVGID_107_);}
	.st109{fill:url(#SVGID_108_);}
	.st110{fill:url(#SVGID_109_);}
	.st111{fill:url(#SVGID_110_);}
	.st112{fill:url(#SVGID_111_);}
	.st113{fill:url(#SVGID_112_);}
	.st114{fill:url(#SVGID_113_);}
	.st115{fill:url(#SVGID_114_);}
	.st116{fill:url(#SVGID_115_);}
	.st117{fill:url(#SVGID_116_);}
	.st118{fill:url(#SVGID_117_);}
	.st119{fill:url(#SVGID_118_);}
	.st120{fill:url(#SVGID_119_);}
	.st121{fill:url(#SVGID_120_);}
	.st122{fill:url(#SVGID_121_);}
	.st123{fill:url(#SVGID_122_);}
	.st124{fill:url(#SVGID_123_);}
	.st125{fill:url(#SVGID_124_);}
	.st126{fill:url(#SVGID_125_);}
	.st127{fill:url(#SVGID_126_);}
	.st128{fill:url(#SVGID_127_);}
	.st129{fill:url(#SVGID_128_);}
	.st130{fill:url(#SVGID_129_);}
	.st131{fill:url(#SVGID_130_);}
	.st132{fill:url(#SVGID_131_);}
	.st133{fill:url(#SVGID_132_);}
	.st134{fill:url(#SVGID_133_);}
	.st135{fill:url(#SVGID_134_);}
	.st136{fill:url(#SVGID_135_);}
	.st137{fill:url(#SVGID_136_);}
	.st138{fill:url(#SVGID_137_);}
	.st139{fill:url(#SVGID_138_);}
	.st140{fill:url(#SVGID_139_);}
	.st141{fill:url(#SVGID_140_);}
	.st142{fill:url(#SVGID_141_);}
	.st143{fill:url(#SVGID_142_);}
	.st144{fill:url(#SVGID_143_);}
	.st145{fill:url(#SVGID_144_);}
	.st146{fill:url(#SVGID_145_);}
	.st147{fill:url(#SVGID_146_);}
	.st148{fill:url(#SVGID_147_);}
	.st149{fill:url(#SVGID_148_);}
	.st150{fill:url(#SVGID_149_);}
	.st151{fill:url(#SVGID_150_);}
	.st152{fill:url(#SVGID_151_);}
	.st153{fill:url(#SVGID_152_);}
	.st154{fill:url(#SVGID_153_);}
	.st155{fill:url(#SVGID_154_);}
	.st156{fill:url(#SVGID_155_);}
	.st157{fill:url(#SVGID_156_);}
	.st158{fill:url(#SVGID_157_);}
	.st159{fill:url(#SVGID_158_);}
	.st160{fill:url(#SVGID_159_);}
	.st161{fill:url(#SVGID_160_);}
	.st162{fill:url(#SVGID_161_);}
	.st163{fill:url(#SVGID_162_);}
	.st164{fill:url(#SVGID_163_);}
	.st165{fill:url(#SVGID_164_);}
	.st166{fill:url(#SVGID_165_);}
	.st167{fill:url(#SVGID_166_);}
	.st168{fill:url(#SVGID_167_);}
	.st169{fill:url(#SVGID_168_);}
	.st170{fill:url(#SVGID_169_);}
	.st171{fill:url(#SVGID_170_);}
	.st172{fill:url(#SVGID_171_);}
	.st173{fill:url(#SVGID_172_);}
	.st174{fill:url(#SVGID_173_);}
	.st175{fill:url(#SVGID_174_);}
	.st176{fill:url(#SVGID_175_);}
	.st177{fill:url(#SVGID_176_);}
	.st178{fill:url(#SVGID_177_);}
	.st179{fill:url(#SVGID_178_);}
	.st180{fill:url(#SVGID_179_);}
	.st181{fill:url(#SVGID_180_);}
	.st182{fill:url(#SVGID_181_);}
	.st183{fill:url(#SVGID_182_);}
	.st184{fill:url(#SVGID_183_);}
	.st185{fill:url(#SVGID_184_);}
	.st186{fill:url(#SVGID_185_);}
	.st187{fill:url(#SVGID_186_);}
	.st188{fill:url(#SVGID_187_);}
	.st189{fill:url(#SVGID_188_);}
	.st190{fill:url(#SVGID_189_);}
	.st191{fill:url(#SVGID_190_);}
	.st192{fill:url(#SVGID_191_);}
	.st193{fill:url(#SVGID_192_);}
	.st194{fill:url(#SVGID_193_);}
	.st195{fill:url(#SVGID_194_);}
	.st196{fill:url(#SVGID_195_);}
	.st197{fill:url(#SVGID_196_);}
	.st198{fill:url(#SVGID_197_);}
	.st199{fill:url(#SVGID_198_);}
	.st200{fill:url(#SVGID_199_);}
	.st201{fill:url(#SVGID_200_);}
	.st202{fill:url(#SVGID_201_);}
	.st203{fill:url(#SVGID_202_);}
	.st204{fill:url(#SVGID_203_);}
	.st205{fill:url(#SVGID_204_);}
	.st206{fill:url(#SVGID_205_);}
	.st207{fill:url(#SVGID_206_);}
	.st208{fill:url(#SVGID_207_);}
	.st209{fill:url(#SVGID_208_);}
	.st210{fill:url(#SVGID_209_);}
	.st211{fill:url(#SVGID_210_);}
	.st212{fill:url(#SVGID_211_);}
	.st213{fill:url(#SVGID_212_);}
	.st214{fill:url(#SVGID_213_);}
	.st215{fill:url(#SVGID_214_);}
	.st216{fill:url(#SVGID_215_);}
	.st217{fill:url(#SVGID_216_);}
	.st218{fill:url(#SVGID_217_);}
	.st219{fill:url(#SVGID_218_);}
	.st220{fill:url(#SVGID_219_);}
	.st221{fill:url(#SVGID_220_);}
	.st222{fill:url(#SVGID_221_);}
	.st223{fill:url(#SVGID_222_);}
	.st224{fill:url(#SVGID_223_);}
	.st225{fill:url(#SVGID_224_);}
	.st226{fill:url(#SVGID_225_);}
	.st227{fill:url(#SVGID_226_);}
	.st228{fill:url(#SVGID_227_);}
	.st229{fill:url(#SVGID_228_);}
	.st230{fill:url(#SVGID_229_);}
	.st231{fill:url(#SVGID_230_);}
	.st232{fill:url(#SVGID_231_);}
	.st233{fill:url(#SVGID_232_);}
	.st234{fill:url(#SVGID_233_);}
	.st235{fill:url(#SVGID_234_);}
	.st236{fill:url(#SVGID_235_);}
	.st237{fill:url(#SVGID_236_);}
	.st238{fill:url(#SVGID_237_);}
	.st239{fill:url(#SVGID_238_);}
	.st240{fill:url(#SVGID_239_);}
	.st241{fill:url(#SVGID_240_);}
	.st242{fill:url(#SVGID_241_);}
	.st243{fill:url(#SVGID_242_);}
	.st244{fill:url(#SVGID_243_);}
	.st245{fill:url(#SVGID_244_);}
	.st246{fill:url(#SVGID_245_);}
	.st247{fill:url(#SVGID_246_);}
	.st248{fill:url(#SVGID_247_);}
	.st249{fill:url(#SVGID_248_);}
	.st250{fill:url(#SVGID_249_);}
	.st251{fill:url(#SVGID_250_);}
	.st252{fill:url(#SVGID_251_);}
	.st253{fill:url(#SVGID_252_);}
	.st254{fill:url(#SVGID_253_);}
	.st255{fill:url(#SVGID_254_);}
	.st256{fill:url(#SVGID_255_);}
	.st257{fill:url(#SVGID_256_);}
	.st258{fill:url(#SVGID_257_);}
	.st259{fill:url(#SVGID_258_);}
	.st260{fill:url(#SVGID_259_);}
	.st261{fill:url(#SVGID_260_);}
	.st262{fill:url(#SVGID_261_);}
	.st263{fill:url(#SVGID_262_);}
	.st264{fill:url(#SVGID_263_);}
	.st265{fill:url(#SVGID_264_);}
	.st266{fill:url(#SVGID_265_);}
	.st267{fill:url(#SVGID_266_);}
	.st268{fill:url(#SVGID_267_);}
	.st269{fill:url(#SVGID_268_);}
	.st270{fill:url(#SVGID_269_);}
	.st271{fill:url(#SVGID_270_);}
	.st272{clip-path:url(#SVGID_272_);}
	.st273{fill:url(#SVGID_273_);}
	.st274{fill:url(#SVGID_274_);}
	.st275{fill:url(#SVGID_275_);}
</style>
<g>
	<g>
		<g>
			<linearGradient id="SVGID_1_" gradientUnits="userSpaceOnUse" x1="156.7775" y1="10.0093" x2="184.2065" y2="98.1144">
				<stop  offset="0" style="stop-color:#27AAE1"/>
				<stop  offset="1" style="stop-color:#2B3990"/>
			</linearGradient>
			<path class="st0" d="M211.181,103.067c-11.693,30.63-35.197,30.853-52.508,20.423c39.105,11.417,41.877-71.424-2.453-119.079
				C192.935,29.636,217.309,66.129,211.181,103.067z"/>
		</g>
		<g>
			
				<linearGradient id="SVGID_2_" gradientUnits="userSpaceOnUse" x1="1148.6578" y1="10.0093" x2="1176.0868" y2="98.1144" gradientTransform="matrix(-1 0 0 1 1210.3905 0)">
				<stop  offset="0" style="stop-color:#27AAE1"/>
				<stop  offset="1" style="stop-color:#2B3990"/>
			</linearGradient>
			<path class="st1" d="M7.329,103.067c11.693,30.63,35.197,30.853,52.508,20.423C20.732,134.908,17.96,52.067,62.291,4.412
				C25.575,29.636,1.201,66.129,7.329,103.067z"/>
		</g>
		<linearGradient id="SVGID_3_" gradientUnits="userSpaceOnUse" x1="109.2551" y1="185.6145" x2="109.2551" y2="47.4784">
			<stop  offset="0" style="stop-color:#27AAE1"/>
			<stop  offset="1" style="stop-color:#1C75BC"/>
		</linearGradient>
		<path class="st2" d="M211.181,103.067c-10.493,59.55-63.968,72.019-101.926,14.943c-37.958,57.075-91.433,44.607-101.926-14.943
			c11.693,30.63,35.197,30.853,52.508,20.423c9.622-5.788,17.333-14.869,20.062-23.854l-34.23-27.476l46.125-4.577l17.46-49.864
			l17.46,49.864l46.125,4.577l-34.23,27.476c2.729,8.985,10.44,18.066,20.062,23.854
			C175.985,133.92,199.488,133.697,211.181,103.067z"/>
	</g>
	<g>
		<linearGradient id="SVGID_4_" gradientUnits="userSpaceOnUse" x1="316.0166" y1="1.9106" x2="316.0166" y2="155.0405">
			<stop  offset="0" style="stop-color:#27AAE1"/>
			<stop  offset="1" style="stop-color:#1C75BC"/>
		</linearGradient>
		<path class="st3" d="M372.579,51.523h15.287l-39.926,93.881h-13.129l-18.884-45.861l-18.704,45.861h-13.129l-39.926-93.881h15.107
			l32.373,78.234l15.827-39.027l-16.186-39.027h13.129l11.51,30.035l11.51-30.035h13.129L324.559,90.73l15.827,39.027
			L372.579,51.523z"/>
		<linearGradient id="SVGID_5_" gradientUnits="userSpaceOnUse" x1="410.3453" y1="1.9106" x2="410.3453" y2="155.0405">
			<stop  offset="0" style="stop-color:#27AAE1"/>
			<stop  offset="1" style="stop-color:#1C75BC"/>
		</linearGradient>
		<path class="st4" d="M402.432,33.898V14.115h15.827v19.783H402.432z M402.432,145.404V51.523h15.827v93.881H402.432z"/>
		<linearGradient id="SVGID_6_" gradientUnits="userSpaceOnUse" x1="462.7709" y1="1.9106" x2="462.7709" y2="155.0405">
			<stop  offset="0" style="stop-color:#27AAE1"/>
			<stop  offset="1" style="stop-color:#1C75BC"/>
		</linearGradient>
		<path class="st5" d="M443.437,14.115h15.827v107.01c0,3.479,0.927,6.205,2.788,8.183c1.858,1.978,4.465,2.968,7.823,2.968
			c1.318,0,2.877-0.208,4.676-0.629c1.798-0.419,3.476-0.928,5.036-1.529l2.518,12.769c-2.639,1.079-5.755,1.978-9.352,2.698
			c-3.597,0.72-6.775,1.079-9.532,1.079c-6.115,0-10.943-1.737-14.478-5.215c-3.538-3.476-5.306-8.332-5.306-14.568V14.115z"/>
		<linearGradient id="SVGID_7_" gradientUnits="userSpaceOnUse" x1="513.1283" y1="1.9106" x2="513.1283" y2="155.0405">
			<stop  offset="0" style="stop-color:#27AAE1"/>
			<stop  offset="1" style="stop-color:#1C75BC"/>
		</linearGradient>
		<path class="st6" d="M493.795,14.115h15.827v107.01c0,3.479,0.927,6.205,2.788,8.183c1.858,1.978,4.465,2.968,7.823,2.968
			c1.318,0,2.878-0.208,4.676-0.629c1.798-0.419,3.476-0.928,5.036-1.529l2.518,12.769c-2.639,1.079-5.755,1.978-9.352,2.698
			c-3.597,0.72-6.775,1.079-9.532,1.079c-6.115,0-10.943-1.737-14.478-5.215c-3.538-3.476-5.306-8.332-5.306-14.568V14.115z"/>
		<linearGradient id="SVGID_8_" gradientUnits="userSpaceOnUse" x1="568.6116" y1="1.9106" x2="568.6116" y2="155.0405">
			<stop  offset="0" style="stop-color:#27AAE1"/>
			<stop  offset="1" style="stop-color:#1C75BC"/>
		</linearGradient>
		<path class="st7" d="M593.431,65.371c-7.913,0.242-14.899,2.279-20.952,6.115c-6.056,3.839-10.341,9.172-12.859,16.007v57.911
			h-15.827V51.523h14.748v21.762c3.237-6.474,7.492-11.839,12.769-16.096c5.275-4.255,10.909-6.385,16.906-6.385
			c1.197,0,2.217,0,3.057,0c0.837,0,1.557,0.062,2.158,0.18V65.371z"/>
		<linearGradient id="SVGID_9_" gradientUnits="userSpaceOnUse" x1="646.5767" y1="1.9106" x2="646.5767" y2="155.0405">
			<stop  offset="0" style="stop-color:#27AAE1"/>
			<stop  offset="1" style="stop-color:#1C75BC"/>
		</linearGradient>
		<path class="st8" d="M646.487,147.203c-7.076,0-13.52-1.321-19.334-3.957c-5.817-2.636-10.791-6.174-14.927-10.611
			c-4.137-4.435-7.346-9.591-9.622-15.467c-2.279-5.873-3.417-12.05-3.417-18.524c0-6.593,1.169-12.828,3.507-18.704
			c2.338-5.873,5.575-11.03,9.712-15.467c4.136-4.434,9.11-7.972,14.927-10.611c5.814-2.636,12.199-3.957,19.154-3.957
			c6.952,0,13.368,1.321,19.244,3.957c5.873,2.639,10.881,6.177,15.017,10.611c4.137,4.437,7.374,9.594,9.712,15.467
			c2.338,5.876,3.507,12.111,3.507,18.704c0,6.474-1.141,12.651-3.417,18.524c-2.279,5.876-5.516,11.033-9.712,15.467
			c-4.198,4.437-9.203,7.975-15.017,10.611C660.003,145.882,653.56,147.203,646.487,147.203z M615.373,98.823
			c0,4.918,0.809,9.473,2.428,13.668c1.619,4.198,3.836,7.855,6.655,10.971c2.816,3.12,6.115,5.575,9.892,7.374
			c3.777,1.798,7.823,2.698,12.14,2.698c4.316,0,8.363-0.899,12.14-2.698c3.777-1.799,7.104-4.285,9.982-7.464
			c2.877-3.175,5.126-6.893,6.744-11.151c1.618-4.255,2.428-8.841,2.428-13.759c0-4.794-0.809-9.321-2.428-13.579
			c-1.619-4.255-3.867-7.972-6.744-11.151c-2.878-3.175-6.205-5.665-9.982-7.464c-3.777-1.798-7.823-2.698-12.14-2.698
			c-4.317,0-8.363,0.93-12.14,2.788c-3.777,1.86-7.076,4.378-9.892,7.553c-2.819,3.178-5.036,6.896-6.655,11.151
			C616.182,89.322,615.373,93.909,615.373,98.823z"/>
	</g>
</g>
</svg>
